<?xml version="1.0" encoding="UTF-8"?>
<svg xmlns="http://www.w3.org/2000/svg" width="960" height="96" viewBox="0 0 960 96" role="img" aria-label="Moony dialogue expressions sprite sheet with 10 expressions">
  <defs>
    <g id="moonHead">
      <circle cx="0" cy="0" r="15" fill="#dbe6ff" stroke="#aebcde" stroke-width="1.3"/>
      <circle cx="5" cy="-2" r="12" fill="#0a1020"/>
      <circle cx="-4" cy="-8" r="1.2" fill="rgba(245,248,255,0.45)"/>
      <circle cx="-7" cy="1" r="0.9" fill="rgba(245,248,255,0.4)"/>
      <circle cx="-2" cy="4" r="1" fill="rgba(245,248,255,0.35)"/>
    </g>

    <g id="moonBody">
      <ellipse cx="0" cy="0" rx="11" ry="14" fill="#cfdcff" stroke="#aab7d9" stroke-width="1.1"/>
    </g>

    <g id="armL"><line x1="0" y1="0" x2="-8" y2="9" stroke="#d7e2ff" stroke-width="4" stroke-linecap="round"/></g>
    <g id="armR"><line x1="0" y1="0" x2="8" y2="9" stroke="#d7e2ff" stroke-width="4" stroke-linecap="round"/></g>
    <g id="legsN">
      <line x1="-4" y1="0" x2="-5" y2="13" stroke="#d5e0ff" stroke-width="4.2" stroke-linecap="round"/>
      <line x1="4" y1="0" x2="5" y2="13" stroke="#d5e0ff" stroke-width="4.2" stroke-linecap="round"/>
    </g>
  </defs>

  <g transform="translate(48,48)">
    <use href="#moonHead" transform="translate(0,-19)"/><use href="#moonBody" transform="translate(0,8)"/>
    <use href="#armL" transform="translate(-9,2)"/><use href="#armR" transform="translate(9,2)"/><use href="#legsN" transform="translate(0,20)"/>
    <circle cx="-6" cy="-21" r="1.7" fill="#f5f9ff"/><circle cx="2" cy="-20" r="1.7" fill="#f5f9ff"/>
    <line x1="-5" y1="-13" x2="0" y2="-13" stroke="#f5f9ff" stroke-width="1.2" stroke-linecap="round"/>
  </g>

  <g transform="translate(144,48)">
    <use href="#moonHead" transform="translate(0,-19)"/><use href="#moonBody" transform="translate(0,8)"/>
    <use href="#armL" transform="translate(-9,2)"/><use href="#armR" transform="translate(9,2)"/><use href="#legsN" transform="translate(0,20)"/>
    <circle cx="-6" cy="-21" r="1.7" fill="#f5f9ff"/><circle cx="2" cy="-20" r="1.7" fill="#f5f9ff"/>
    <path d="M -6 -13 Q -3 -10 0 -13" fill="none" stroke="#f5f9ff" stroke-width="1.4" stroke-linecap="round"/>
  </g>

  <g transform="translate(240,48)">
    <use href="#moonHead" transform="translate(0,-19)"/><use href="#moonBody" transform="translate(0,8)"/>
    <use href="#armL" transform="translate(-9,2) rotate(-10)"/><use href="#armR" transform="translate(9,2) rotate(10)"/><use href="#legsN" transform="translate(0,20)"/>
    <circle cx="-6" cy="-21" r="1.9" fill="#f5f9ff"/><circle cx="2" cy="-20" r="1.9" fill="#f5f9ff"/>
    <ellipse cx="-3" cy="-12" rx="2.8" ry="1.8" fill="#f5f9ff"/>
  </g>

  <g transform="translate(336,48)">
    <use href="#moonHead" transform="translate(0,-19)"/><use href="#moonBody" transform="translate(0,8)"/>
    <use href="#armL" transform="translate(-9,2) rotate(8)"/><use href="#armR" transform="translate(9,2) rotate(-8)"/><use href="#legsN" transform="translate(0,20)"/>
    <ellipse cx="-6" cy="-21" rx="1.9" ry="1.5" fill="#f5f9ff"/><ellipse cx="2" cy="-20" rx="1.9" ry="1.5" fill="#f5f9ff"/>
    <path d="M -5 -11.8 Q -2.5 -14 0 -11.8" fill="none" stroke="#f5f9ff" stroke-width="1.4" stroke-linecap="round"/>
  </g>

  <g transform="translate(432,48)">
    <use href="#moonHead" transform="translate(0,-19)"/><use href="#moonBody" transform="translate(0,8)"/>
    <use href="#armL" transform="translate(-9,2) rotate(10)"/><use href="#armR" transform="translate(9,2) rotate(-10)"/><use href="#legsN" transform="translate(0,20)"/>
    <circle cx="-6" cy="-21" r="1.8" fill="#f5f9ff"/><circle cx="2" cy="-20" r="1.8" fill="#f5f9ff"/>
    <line x1="-8" y1="-23" x2="-4" y2="-22" stroke="#f5f9ff" stroke-width="1.2" stroke-linecap="round"/>
    <line x1="0" y1="-22" x2="4" y2="-23" stroke="#f5f9ff" stroke-width="1.2" stroke-linecap="round"/>
    <line x1="-5" y1="-12" x2="0" y2="-12" stroke="#f5f9ff" stroke-width="1.6" stroke-linecap="round"/>
  </g>

  <g transform="translate(528,48)">
    <use href="#moonHead" transform="translate(0,-19)"/><use href="#moonBody" transform="translate(0,8)"/>
    <use href="#armL" transform="translate(-9,2)"/><use href="#armR" transform="translate(9,2)"/><use href="#legsN" transform="translate(0,20)"/>
    <circle cx="-6" cy="-21" r="1.7" fill="#f5f9ff"/><circle cx="2" cy="-20" r="1.7" fill="#f5f9ff"/>
    <path d="M -6 -10.8 Q -3 -15.3 0 -10.8" fill="none" stroke="#f5f9ff" stroke-width="1.4" stroke-linecap="round"/>
  </g>

  <g transform="translate(624,48)">
    <use href="#moonHead" transform="translate(0,-19)"/><use href="#moonBody" transform="translate(0,8)"/>
    <use href="#armL" transform="translate(-9,2)"/><use href="#armR" transform="translate(9,2)"/><use href="#legsN" transform="translate(0,20)"/>
    <line x1="-8" y1="-21" x2="-4" y2="-21" stroke="#f5f9ff" stroke-width="1.4" stroke-linecap="round"/>
    <line x1="0" y1="-20" x2="4" y2="-20" stroke="#f5f9ff" stroke-width="1.4" stroke-linecap="round"/>
    <line x1="-4.8" y1="-13" x2="-0.2" y2="-13" stroke="#f5f9ff" stroke-width="1.2" stroke-linecap="round"/>
  </g>

  <g transform="translate(720,48)">
    <use href="#moonHead" transform="translate(0,-19)"/><use href="#moonBody" transform="translate(0,8)"/>
    <use href="#armL" transform="translate(-9,2) rotate(-8)"/><use href="#armR" transform="translate(9,2) rotate(8)"/><use href="#legsN" transform="translate(0,20)"/>
    <circle cx="-6" cy="-21" r="2" fill="#f5f9ff"/><circle cx="2" cy="-20" r="2" fill="#f5f9ff"/>
    <circle cx="-3" cy="-12" r="2.1" fill="none" stroke="#f5f9ff" stroke-width="1.3"/>
  </g>

  <g transform="translate(816,48)">
    <use href="#moonHead" transform="translate(0,-19)"/><use href="#moonBody" transform="translate(0,8)"/>
    <use href="#armL" transform="translate(-9,2) rotate(5)"/><use href="#armR" transform="translate(9,2) rotate(-5)"/><use href="#legsN" transform="translate(0,20)"/>
    <ellipse cx="-6" cy="-21" rx="1.8" ry="1.5" fill="#f5f9ff"/><ellipse cx="2" cy="-20" rx="1.8" ry="1.5" fill="#f5f9ff"/>
    <line x1="-8" y1="-23" x2="-4" y2="-23.7" stroke="#f5f9ff" stroke-width="1.1" stroke-linecap="round"/>
    <line x1="0" y1="-22.8" x2="4" y2="-23.4" stroke="#f5f9ff" stroke-width="1.1" stroke-linecap="round"/>
    <line x1="-5" y1="-12" x2="0" y2="-12" stroke="#f5f9ff" stroke-width="1.4" stroke-linecap="round"/>
  </g>

  <g transform="translate(912,48)">
    <use href="#moonHead" transform="translate(0,-19)"/><use href="#moonBody" transform="translate(0,8)"/>
    <use href="#armL" transform="translate(-9,2)"/><use href="#armR" transform="translate(9,2)"/><use href="#legsN" transform="translate(0,20)"/>
    <circle cx="-6" cy="-21" r="1.7" fill="#f5f9ff"/><circle cx="2" cy="-20" r="1.7" fill="#f5f9ff"/>
    <ellipse cx="-3" cy="-12" rx="2.6" ry="1.7" fill="#f5f9ff"/>
  </g>
</svg>
